<svg width="16" height="16" viewBox="0 0 16 16" fill="none" xmlns="http://www.w3.org/2000/svg">
<path opacity="0.54" fill-rule="evenodd" clip-rule="evenodd" d="M10.3347 9.33334H9.80533L9.62133 9.15068C10.2713 8.39268 10.6667 7.41001 10.6667 6.33334C10.6667 3.94001 8.72667 2.00001 6.33333 2.00001C3.94 2.00001 2 3.94001 2 6.33334C2 8.72668 3.94 10.6667 6.33333 10.6667C7.41 10.6667 8.392 10.272 9.15 9.62268L9.334 9.80534V10.3333L12.666 13.6607L13.66 12.6667L10.3347 9.33334ZM6.33333 9.33334C4.676 9.33334 3.33333 7.99067 3.33333 6.33334C3.33333 4.67667 4.676 3.33334 6.33333 3.33334C7.99 3.33334 9.33333 4.67667 9.33333 6.33334C9.33333 7.99067 7.99 9.33334 6.33333 9.33334Z" fill="black"/>
</svg>
